<svg width="322" height="60" viewBox="0 0 322 60" fill="none" xmlns="http://www.w3.org/2000/svg">
<path d="M322 60V0H30.2935C29.8743 0 29.6648 0 29.4636 0.0162717C28.3817 0.103768 27.3576 0.540944 26.5461 1.26177C26.3952 1.39581 26.2502 1.54717 25.9603 1.84988L25.9603 1.84992L2.97467 25.8499C2.3566 26.4953 2.04756 26.818 1.82802 27.1314C0.621659 28.8535 0.621659 31.1465 1.82802 32.8686C2.04755 33.182 2.35658 33.5047 2.97463 34.15L2.97467 34.1501L25.9603 58.1501C26.2502 58.4528 26.3952 58.6042 26.5461 58.7382C27.3576 59.4591 28.3817 59.8962 29.4636 59.9837C29.6648 60 29.8743 60 30.2935 60H322Z" fill="#1949D6"/>
</svg>
